<svg width="224" height="24" viewBox="0 0 224 24" fill="none" xmlns="http://www.w3.org/2000/svg">
<rect width="32" height="24" rx="4" fill="#3671C6"/>
<path fill-rule="evenodd" clip-rule="evenodd" d="M5.16003 8.5L2 15.493H5.783L6.25198 14.3781H7.32396L7.79294 15.493H11.957V14.642L12.328 15.493H14.482L14.853 14.6241V15.493H23.513L24.566 14.407L25.552 15.493L30 15.502L26.83 12.016L30 8.5H25.621L24.596 9.56596L23.641 8.5H14.22L13.4111 10.305L12.5831 8.5H8.80801V9.32203L8.38805 8.5H5.16003ZM18.092 9.49316H23.065L24.586 11.1361L26.1561 9.49316H27.6771L25.3661 12.0152L27.6771 14.5082H26.0871L24.5661 12.8461L22.988 14.5082H18.092V9.49316ZM19.32 11.4477V10.5317L22.423 10.5308L23.777 11.9958L22.363 13.4688H19.32V12.4687H22.033V11.4477H19.32ZM5.89206 9.49316H7.73607L9.83211 14.2352V9.49316H11.8522L13.4711 12.8932L14.9632 9.49316H16.9731V14.5111H15.7501L15.7401 10.5791L13.9571 14.5111H12.863L11.07 10.5791V14.5111H8.55404L8.07705 13.3862H5.50007L5.02407 14.5101H3.67603L5.89206 9.49316ZM5.94006 12.3463L6.78908 10.3423L7.6371 12.3463H5.94006Z" fill="white"/>
<rect x="48" width="32" height="24" rx="4" fill="black"/>
<path d="M56.3853 8.28925C56.104 8.62702 55.6539 8.89343 55.2039 8.85538C55.1476 8.39867 55.3679 7.91342 55.6258 7.6137C55.9071 7.26641 56.3993 7.01903 56.7978 7C56.8447 7.47574 56.6618 7.94196 56.3853 8.28925ZM56.7931 8.94577C56.1415 8.90771 55.5836 9.3216 55.2742 9.3216C54.9601 9.3216 54.4866 8.9648 53.9709 8.97431C53.3005 8.98382 52.677 9.36917 52.3348 9.98287C51.6316 11.2103 52.152 13.0276 52.8317 14.0266C53.1646 14.5214 53.5631 15.0637 54.0881 15.0447C54.585 15.0257 54.7819 14.7165 55.382 14.7165C55.9868 14.7165 56.1602 15.0447 56.6853 15.0352C57.2291 15.0257 57.5713 14.5404 57.9042 14.0457C58.2839 13.4843 58.4386 12.9372 58.448 12.9087C58.4386 12.8991 57.3979 12.4948 57.3885 11.2769C57.3791 10.2588 58.2089 9.77355 58.2464 9.745C57.7776 9.04091 57.0463 8.9648 56.7931 8.94577ZM60.5576 7.56613V14.9829H61.6921V12.4472H63.2626C64.6971 12.4472 65.7051 11.4481 65.7051 10.0019C65.7051 8.55566 64.7159 7.56613 63.3001 7.56613H60.5576ZM61.6921 8.53663H63.0001C63.9846 8.53663 64.5471 9.06946 64.5471 10.0067C64.5471 10.9439 63.9846 11.4814 62.9954 11.4814H61.6921V8.53663ZM67.7772 15.04C68.4898 15.04 69.1508 14.6736 69.4508 14.0932H69.4743V14.9829H70.5244V11.2912C70.5244 10.2207 69.6805 9.53092 68.3819 9.53092C67.1771 9.53092 66.2864 10.2303 66.2536 11.1912H67.2756C67.3599 10.7345 67.7772 10.4348 68.3491 10.4348C69.043 10.4348 69.4321 10.7631 69.4321 11.3673V11.7764L68.0163 11.862C66.6989 11.9429 65.9864 12.49 65.9864 13.4415C65.9864 14.4025 66.7224 15.04 67.7772 15.04ZM68.0819 14.1598C67.4771 14.1598 67.0927 13.8649 67.0927 13.4129C67.0927 12.9467 67.4631 12.6755 68.171 12.6327L69.4321 12.5519V12.9705C69.4321 13.6651 68.8507 14.1598 68.0819 14.1598ZM71.9261 17C73.0325 17 73.5528 16.5718 74.0076 15.2731L76 9.60228H74.8467L73.5107 13.9838H73.4872L72.1511 9.60228H70.965L72.8871 15.0019L72.784 15.3302C72.6105 15.8868 72.3293 16.1009 71.8276 16.1009C71.7386 16.1009 71.5651 16.0913 71.4948 16.0818V16.9715C71.5604 16.9905 71.8417 17 71.9261 17Z" fill="white"/>
<rect x="96" width="32" height="24" rx="4" fill="#252525"/>
<path d="M115.246 6.14941H108.756V17.851H115.246V6.14941Z" fill="#FF5F00"/>
<path d="M109.167 12C109.166 10.873 109.421 9.7606 109.912 8.74694C110.402 7.73328 111.117 6.84494 112 6.14918C110.906 5.28626 109.592 4.74963 108.208 4.60061C106.825 4.45159 105.427 4.6962 104.175 5.30648C102.924 5.91677 101.868 6.8681 101.13 8.05175C100.392 9.23539 100 10.6036 100 12C100 13.3963 100.392 14.7645 101.13 15.9482C101.868 17.1318 102.924 18.0831 104.175 18.6934C105.427 19.3037 106.825 19.5483 108.208 19.3993C109.592 19.2503 110.906 18.7136 112 17.8507C111.117 17.155 110.402 16.2666 109.912 15.253C109.421 14.2393 109.166 13.1269 109.167 12Z" fill="#EB001B"/>
<path d="M124 12C124 13.3963 123.608 14.7645 122.87 15.9481C122.132 17.1318 121.076 18.0831 119.825 18.6934C118.573 19.3037 117.175 19.5483 115.792 19.3993C114.408 19.2503 113.094 18.7136 112 17.8507C112.883 17.1543 113.596 16.2658 114.087 15.2523C114.578 14.2388 114.833 13.1267 114.833 12C114.833 10.8732 114.578 9.76113 114.087 8.74763C113.596 7.73413 112.883 6.84565 112 6.14917C113.094 5.28626 114.408 4.74962 115.792 4.60061C117.175 4.45159 118.573 4.69621 119.825 5.3065C121.076 5.91679 122.132 6.86813 122.87 8.05177C123.608 9.23541 124 10.6036 124 12Z" fill="#F79E1B"/>
<rect x="144" width="32" height="24" rx="4" fill="#6366F3"/>
<path d="M161.076 7.91762L159.263 8.32135V6.79615L161.076 6.3999V7.91762Z" fill="white"/>
<path fill-rule="evenodd" clip-rule="evenodd" d="M164.846 8.7626C164.138 8.7626 163.683 9.10652 163.431 9.34577L163.337 8.88223H161.748V17.5998L163.553 17.2035L163.561 15.0877C163.821 15.2821 164.203 15.5587 164.839 15.5587C166.132 15.5587 167.309 14.4821 167.309 12.1121C167.302 9.94388 166.11 8.7626 164.846 8.7626ZM164.413 13.9138C163.987 13.9138 163.734 13.7568 163.56 13.5624L163.553 10.7887C163.741 10.5718 164.001 10.4223 164.413 10.4223C165.07 10.4223 165.525 11.1849 165.525 12.1643C165.525 13.1662 165.077 13.9138 164.413 13.9138Z" fill="white"/>
<path fill-rule="evenodd" clip-rule="evenodd" d="M173 12.1868C173 10.2728 172.104 8.7626 170.393 8.7626C168.674 8.7626 167.634 10.2728 167.634 12.1719C167.634 14.4223 168.862 15.5587 170.624 15.5587C171.483 15.5587 172.133 15.3568 172.624 15.0727V13.5774C172.133 13.8316 171.57 13.9886 170.855 13.9886C170.154 13.9886 169.533 13.7344 169.454 12.8522H172.985C172.985 12.811 172.988 12.7174 172.991 12.6095C172.995 12.463 173 12.2902 173 12.1868ZM169.432 11.4763C169.432 10.6314 169.93 10.2801 170.385 10.2801C170.826 10.2801 171.295 10.6314 171.295 11.4763H169.432Z" fill="white"/>
<path d="M159.263 8.8896H161.076V15.4315H159.263V8.8896Z" fill="white"/>
<path d="M157.205 8.88988L157.321 9.44314C157.747 8.63568 158.592 8.80016 158.823 8.88988V10.6095C158.599 10.5272 157.877 10.4226 157.451 10.9982V15.4318H155.645V8.88988H157.205Z" fill="white"/>
<path d="M153.709 7.2677L151.947 7.65648L151.94 13.6451C151.94 14.7516 152.742 15.5666 153.811 15.5666C154.403 15.5666 154.836 15.4544 155.074 15.3198V13.8021C154.843 13.8993 153.702 14.2432 153.702 13.1367V10.4826H155.074V8.89009H153.702L153.709 7.2677Z" fill="white"/>
<path d="M149.441 10.385C149.058 10.385 148.827 10.4971 148.827 10.7887C148.827 11.1071 149.225 11.2471 149.718 11.4209C150.523 11.7041 151.582 12.0769 151.586 13.4578C151.586 14.7961 150.553 15.5662 149.051 15.5662C148.43 15.5662 147.751 15.4391 147.079 15.14V13.3606C147.686 13.7045 148.452 13.9587 149.051 13.9587C149.456 13.9587 149.744 13.8466 149.744 13.5027C149.744 13.15 149.313 12.9888 148.793 12.7942C148 12.4979 147 12.124 147 10.8784C147 9.55511 147.975 8.7626 149.441 8.7626C150.041 8.7626 150.633 8.8598 151.232 9.10652V10.8635C150.683 10.557 149.99 10.385 149.441 10.385Z" fill="white"/>
<rect x="192" width="32" height="24" rx="4" fill="#1B39C3"/>
<path d="M218.222 15.912L217.997 14.7439H215.483L215.083 15.9037L213.068 15.9078C214.027 13.5126 214.989 11.1184 215.952 8.72498C216.116 8.31902 216.407 8.1124 216.836 8.11447C217.164 8.11759 217.699 8.11759 218.442 8.11551L220 15.9088L218.222 15.912ZM216.049 13.1439H217.669L217.064 10.216L216.049 13.1439ZM203.06 8.11344L205.086 8.11551L201.954 15.913L199.903 15.9109C199.387 13.8513 198.878 11.79 198.375 9.72692C198.275 9.31577 198.077 9.02816 197.696 8.89215C197.357 8.77067 196.792 8.58378 196 8.3294V8.11655H199.237C199.797 8.11655 200.124 8.39792 200.229 8.97521C200.335 9.55353 200.601 11.0258 201.029 13.3921L203.06 8.11344ZM207.87 8.11551L206.268 15.9109L204.34 15.9088L205.94 8.11344L207.87 8.11551ZM211.78 7.97119C212.357 7.97119 213.084 8.15808 213.502 8.3294L213.164 9.946C212.786 9.78818 212.164 9.57534 211.641 9.5826C210.881 9.5961 210.411 9.92731 210.411 10.245C210.411 10.7621 211.227 11.0227 212.067 11.5875C213.026 12.2313 213.152 12.8096 213.14 13.4377C213.127 14.7418 212.067 16.0283 209.831 16.0283C208.811 16.0127 208.443 15.9234 207.611 15.6171L207.963 13.9299C208.81 14.2985 209.169 14.4158 209.893 14.4158C210.556 14.4158 211.125 14.1375 211.13 13.6527C211.134 13.308 210.93 13.1366 210.186 12.7109C209.442 12.2842 208.398 11.6934 208.412 10.5077C208.429 8.98974 209.814 7.97119 211.781 7.97119H211.78Z" fill="white"/>
</svg>
