<svg width="24" height="27" viewBox="0 0 24 27" fill="none" xmlns="http://www.w3.org/2000/svg">
<path d="M12.4396 27H2.40463C1.76716 26.9991 1.15605 26.7386 0.705285 26.2757C0.254526 25.8128 0.000907144 25.1852 3.92464e-05 24.5305V2.26783C-0.00168923 1.971 0.0536923 1.67674 0.163004 1.40194C0.272315 1.12715 0.433404 0.877243 0.637019 0.666564C0.840635 0.455886 1.08277 0.28859 1.34951 0.174281C1.61626 0.0599718 1.90236 0.000902204 2.1914 0.000463805H12.7348C15.0179 -0.0193981 17.2632 0.599006 19.2302 1.78943C22.3532 3.71315 24 6.64759 24 10.2727C24 13.4328 22.8945 16.054 20.7983 17.8463C19.1328 19.2246 17.0908 20.036 14.9557 20.1676V24.4126C14.9549 25.0979 14.6896 25.755 14.218 26.24C13.7464 26.7249 13.107 26.9982 12.4396 27ZM2.36854 2.43291V24.5305C2.36852 24.5352 2.36946 24.5399 2.37131 24.5442C2.37316 24.5485 2.37588 24.5524 2.37928 24.5556C2.38268 24.5588 2.3867 24.5612 2.39106 24.5627C2.39543 24.5641 2.40005 24.5647 2.40463 24.5642H12.4396C12.4788 24.5642 12.5163 24.5482 12.544 24.5198C12.5717 24.4913 12.5872 24.4528 12.5872 24.4126V20.1036C8.81796 19.6016 5.26848 17.1826 5.26848 13.0993C5.26848 8.85095 8.08969 6.25341 12.8136 6.14897C13.0924 6.14359 13.3695 6.19542 13.6286 6.30141C13.8877 6.4074 14.1236 6.56542 14.3225 6.76622C14.5214 6.96703 14.6793 7.20657 14.7869 7.47083C14.8945 7.73508 14.9497 8.01873 14.9492 8.30516V17.7385C16.5289 17.6157 18.0357 17.0063 19.2728 15.99C20.8343 14.6423 21.6249 12.7355 21.6249 10.2862C21.6249 7.52354 20.4079 5.37072 18.0164 3.88497C16.4178 2.92229 14.5945 2.42388 12.7414 2.44302L2.36854 2.43291ZM12.5872 8.59153C10.2646 8.70608 7.63699 9.60225 7.63699 13.0993C7.63699 15.6531 9.98581 17.2197 12.5872 17.6475V8.59153Z" fill="#2A4DA0"/>
</svg>
